<svg width="28" height="30" fill="none" xmlns="http://www.w3.org/2000/svg"><path d="M18.244 19.161L9.93 21.619a4.532 4.532 0 001.819 1.875v4.439h-1.416c-.56 0-1.012.463-1.012 1.033 0 .57.453 1.034 1.012 1.034h8.345c.56 0 1.012-.463 1.012-1.034 0-.57-.453-1.033-1.012-1.033h-1.416v-5.588c0 .002 1.058-1.053.982-3.184zm-3.006 8.772h-1.465l-.013-3.877c.69-.018 1.478-.27 1.478-.27v4.147zM2.625 11.498L5.812 9.84l3.837 9.71-3.516 1.039s-1.023.395-1.418-1.122l-1.7.685s-.832.363-1.313-.584L.071 15.332A1.042 1.042 0 01.64 13.99l1.696-.685c0-.001-.67-1.31.288-1.808zm14.288-9.174L20.873.14c.924-.508 1.421.53 1.421.53l5.424 14.056c.31 1.179-.687 1.38-.687 1.38l-4.357 1.158c-1.042.278-1.401-1.151-1.401-1.151l-9.67 2.86L7.622 8.9l9.051-4.707c0-.001-.748-1.324.24-1.869z" fill="#B85A60"/></svg>