<svg width="120" height="20" fill="none" xmlns="http://www.w3.org/2000/svg"><path d="M9.947 0l3.392 5.308 6.069 1.602-3.974 4.882.36 6.298-5.847-2.29L4.1 18.09l.36-6.298L.487 6.91l6.07-1.602L9.946 0zm24.895 0l3.391 5.308 6.07 1.602-3.974 4.882.36 6.298-5.847-2.29-5.847 2.29.36-6.298L25.38 6.91l6.07-1.602L34.84 0zm24.894 0l3.392 5.308 6.069 1.602-3.974 4.882.36 6.298-5.847-2.29-5.846 2.29.36-6.298-3.974-4.882 6.07-1.602L59.735 0zM84.63 0l3.392 5.308 6.07 1.602-3.974 4.882.36 6.298-5.847-2.29-5.847 2.29.36-6.298L75.17 6.91l6.07-1.602L84.63 0zm24.895 0l3.392 5.308 6.069 1.602-3.973 4.882.359 6.298-5.847-2.29-5.846 2.29.359-6.298-3.973-4.882 6.069-1.602L109.525 0z" fill="#FACC07"/></svg>