<svg width="32" height="32" fill="none" xmlns="http://www.w3.org/2000/svg"><g clip-path="url(#clip0_302_1551)"><path d="M29.55 7.541c-1.018.45-2.098.746-3.203.878A5.595 5.595 0 0028.8 5.333a11.144 11.144 0 01-3.541 1.354 5.576 5.576 0 00-9.502 5.085A15.832 15.832 0 014.264 5.945 5.557 5.557 0 003.51 8.75c0 1.934.984 3.642 2.48 4.642a5.559 5.559 0 01-2.525-.698v.07a5.58 5.58 0 004.473 5.468 5.614 5.614 0 01-2.52.096 5.58 5.58 0 005.21 3.873 11.191 11.191 0 01-8.255 2.31 15.773 15.773 0 008.547 2.506c10.257 0 15.866-8.497 15.866-15.867 0-.24-.006-.482-.017-.72a11.328 11.328 0 002.783-2.886l-.002-.002z" fill="#6854FC"/></g><defs><clipPath id="clip0_302_1551"><path fill="#fff" d="M0 0h32v32H0z"/></clipPath></defs></svg>