<svg width="36" height="36" fill="none" xmlns="http://www.w3.org/2000/svg"><path d="M34.866 24.23a17.67 17.67 0 000-12.46 1.339 1.339 0 00-.088-.238A18.013 18.013 0 0018 0h-.009A18.015 18.015 0 001.146 11.735a17.694 17.694 0 000 12.53c.018.062.04.122.067.18a17.971 17.971 0 0033.565.02c.037-.075.066-.154.088-.234zM13.34 22.459a21.225 21.225 0 010-8.917h9.318a21.225 21.225 0 010 8.917H13.34zm8.56 2.77A25.42 25.42 0 0118 32.48a25.45 25.45 0 01-3.895-7.252H21.9zM2.768 18a15.16 15.16 0 01.674-4.459h7.077a24.056 24.056 0 000 8.917H3.443A15.16 15.16 0 012.77 18zm11.336-7.228a25.452 25.452 0 013.902-7.252 25.419 25.419 0 013.893 7.252h-7.795zm11.386 2.77h7.076a15.165 15.165 0 010 8.916h-7.083a23.98 23.98 0 000-8.917h.006zm5.917-2.77H24.83a27.431 27.431 0 00-3.698-7.675A15.28 15.28 0 0131.4 10.772h.007zM14.866 3.097a27.43 27.43 0 00-3.7 7.675h-6.57a15.28 15.28 0 0110.27-7.675zm-10.27 22.13h6.57a27.431 27.431 0 003.7 7.675 15.28 15.28 0 01-10.27-7.675zm16.537 7.675a27.43 27.43 0 003.698-7.675h6.57a15.28 15.28 0 01-10.268 7.675z" fill="#6854FC"/></svg>