<svg width="32" height="32" fill="none" xmlns="http://www.w3.org/2000/svg"><g clip-path="url(#clip0_302_1555)"><path d="M28.724 8.664c.61 2.376.61 7.336.61 7.336s0 4.96-.61 7.336c-.339 1.313-1.33 2.347-2.584 2.696-2.279.635-10.14.635-10.14.635s-7.857 0-10.14-.635c-1.26-.355-2.25-1.387-2.584-2.696-.61-2.376-.61-7.336-.61-7.336s0-4.96.61-7.336c.339-1.313 1.33-2.347 2.584-2.696C8.143 5.333 16 5.333 16 5.333s7.861 0 10.14.635c1.26.355 2.25 1.387 2.584 2.696zm-15.39 12.003l8-4.667-8-4.667v9.334z" fill="#6854FC"/></g><defs><clipPath id="clip0_302_1555"><path fill="#fff" d="M0 0h32v32H0z"/></clipPath></defs></svg>