<svg width="37" height="36" fill="none" xmlns="http://www.w3.org/2000/svg"><path d="M27.95 2.788l-1.348 1.349a.594.594 0 11-.841-.841l1.348-1.35a.601.601 0 01.847 0 .589.589 0 01-.006.842zm1.946 4.135a.594.594 0 01-.597.573h-.024l-1.903-.077a.604.604 0 01-.573-.627.593.593 0 01.596-.567h.024l1.904.078a.595.595 0 01.573.62zM23.593.574l.078 1.904a.59.59 0 01-.567.62h-.03a.592.592 0 01-.59-.573L22.4.622A.6.6 0 0122.973 0a.588.588 0 01.62.573zM19.79 15.936l-5.829-5.829.79-4.867 9.908 9.908-4.868.788zm7.073-1.145l-.75.122L14.986 3.789l.122-.752a.597.597 0 011.011-.326l11.07 11.07a.597.597 0 01-.327 1.01zm-2.426-9.326a3.336 3.336 0 01.379 4.253l-4.637-4.637c1.3-.9 3.101-.771 4.258.384zM10.405 21.341a1.31 1.31 0 01-1.849 0 1.31 1.31 0 010-1.85l.93-.928 1.848 1.848-.93.93zm2.977-.57l-4.256-4.256a.822.822 0 010-1.16l4.198-4.197 5.415 5.415-4.198 4.198a.838.838 0 01-1.16 0zm9.686 3.059c-.372-.372 1.553 1.557-4.947-4.953l-1.856 1.856 4.953 4.947a1.304 1.304 0 001.85 0 1.304 1.304 0 000-1.85zM0 31.121v1.145a2.892 2.892 0 002.891 2.891H34.11A2.892 2.892 0 0037 32.266v-1.145H0z" fill="#6854FC"/><path d="M33.81 8.26h-7.232a4.479 4.479 0 01-.782 2.137l-.12.179.669.668h6.236v15.701H23.35a2.496 2.496 0 01-2.41 0H4.418V11.244h7.126l1.217-1.217.287-1.767H3.19c-.967 0-1.754.782-1.754 1.749v19.92h34.129v-19.92c0-.967-.788-1.749-1.755-1.749z" fill="#6854FC"/></svg>