<svg width="129" height="18" fill="none" xmlns="http://www.w3.org/2000/svg"><path d="M4.384 17l1.187-3.648h5.774L12.532 17h3.625L10.642 1h-4.36L.76 17h3.625zm2.047-6.29l1.968-6.054h.125l1.97 6.055H6.43zm16.453 6.524c3.195 0 5.203-1.875 5.36-4.632h-3.142c-.195 1.28-1.038 2-2.18 2-1.554 0-2.562-1.305-2.562-3.602 0-2.266 1.016-3.563 2.563-3.563 1.219 0 2 .805 2.18 2h3.14c-.14-2.773-2.242-4.593-5.375-4.593-3.64 0-5.89 2.523-5.89 6.203 0 3.648 2.21 6.187 5.906 6.187zm12.959 0c2.968 0 4.968-1.445 5.437-3.672l-3.078-.203c-.336.914-1.195 1.391-2.304 1.391-1.665 0-2.72-1.102-2.72-2.89v-.008h8.173v-.915c0-4.078-2.47-6.093-5.641-6.093-3.531 0-5.82 2.508-5.82 6.21 0 3.805 2.258 6.18 5.953 6.18zM33.179 9.79c.07-1.367 1.11-2.46 2.586-2.46 1.445 0 2.445 1.03 2.453 2.46h-5.04z" fill="#FFE600"/><path d="M57.356 5.602H60.6c-.047-2.852-2.391-4.82-5.953-4.82-3.508 0-6.079 1.937-6.063 4.843-.008 2.36 1.656 3.71 4.36 4.36l1.742.437c1.742.422 2.71.922 2.718 2-.008 1.172-1.117 1.969-2.836 1.969-1.757 0-3.023-.813-3.132-2.414H48.16c.086 3.46 2.563 5.25 6.445 5.25 3.907 0 6.204-1.868 6.211-4.797-.007-2.664-2.015-4.078-4.797-4.703l-1.437-.344c-1.39-.32-2.555-.836-2.531-1.985 0-1.03.914-1.789 2.57-1.789 1.617 0 2.61.735 2.734 1.993zM69.413 5h-2.258V2.125h-3.328V5h-1.64v2.5h1.64v6.25c-.015 2.352 1.586 3.516 4 3.414a6.478 6.478 0 001.805-.312l-.524-2.477c-.164.031-.515.11-.828.11-.664 0-1.125-.25-1.125-1.172V7.5h2.258V5zm9.863 6.89c.008 1.61-1.093 2.454-2.289 2.454-1.257 0-2.07-.883-2.078-2.297V5h-3.328v7.64c.008 2.805 1.648 4.516 4.063 4.516 1.804 0 3.101-.93 3.64-2.336h.125V17h3.195V5h-3.328v6.89zm10.413 5.305c1.937 0 2.945-1.117 3.406-2.117h.14V17h3.282V1h-3.32v6.016h-.102c-.446-.977-1.406-2.172-3.414-2.172-2.633 0-4.86 2.047-4.86 6.172 0 4.015 2.133 6.18 4.868 6.18zm1.054-2.648c-1.633 0-2.523-1.453-2.523-3.547 0-2.078.875-3.508 2.523-3.508 1.617 0 2.524 1.367 2.524 3.508 0 2.14-.922 3.547-2.524 3.547zM99.253 17h3.328V5h-3.328v12zm1.672-13.547c.992 0 1.804-.758 1.804-1.687 0-.922-.812-1.68-1.804-1.68-.985 0-1.797.758-1.797 1.68 0 .93.812 1.687 1.797 1.687zm9.744 13.781c3.641 0 5.906-2.492 5.906-6.187 0-3.719-2.265-6.203-5.906-6.203-3.641 0-5.906 2.484-5.906 6.203 0 3.695 2.265 6.187 5.906 6.187zm.016-2.578c-1.68 0-2.539-1.539-2.539-3.633 0-2.093.859-3.64 2.539-3.64 1.648 0 2.507 1.547 2.507 3.64 0 2.094-.859 3.633-2.507 3.633zm18.039-6.234c-.297-2.211-2.078-3.578-5.11-3.578-3.07 0-5.093 1.422-5.086 3.734-.007 1.797 1.125 2.961 3.469 3.43l2.078.414c1.047.21 1.524.594 1.539 1.195-.015.711-.789 1.219-1.953 1.219-1.187 0-1.976-.508-2.18-1.484l-3.273.171c.313 2.297 2.266 3.711 5.445 3.711 3.11 0 5.336-1.586 5.344-3.953-.008-1.734-1.141-2.773-3.469-3.25l-2.172-.437c-1.117-.242-1.531-.625-1.523-1.203-.008-.72.805-1.188 1.836-1.188 1.156 0 1.844.633 2.008 1.406l3.047-.187z" fill="#fff"/></svg>