<svg width="32" height="32" fill="none" xmlns="http://www.w3.org/2000/svg"><g clip-path="url(#clip0_302_1539)"><path d="M16 2.667c3.623 0 4.075.013 5.496.08 1.42.066 2.387.289 3.237.62a6.49 6.49 0 012.363 1.537 6.543 6.543 0 011.537 2.363c.33.849.554 1.817.62 3.237.063 1.421.08 1.873.08 5.496s-.013 4.075-.08 5.496c-.066 1.42-.29 2.387-.62 3.237a6.51 6.51 0 01-1.537 2.363 6.553 6.553 0 01-2.363 1.537c-.849.33-1.817.554-3.237.62-1.421.063-1.873.08-5.496.08s-4.075-.013-5.496-.08c-1.42-.066-2.387-.29-3.237-.62a6.521 6.521 0 01-2.363-1.537 6.539 6.539 0 01-1.537-2.363c-.33-.849-.554-1.817-.62-3.237-.063-1.421-.08-1.873-.08-5.496s.013-4.075.08-5.496c.066-1.421.29-2.387.62-3.237a6.507 6.507 0 011.537-2.363 6.53 6.53 0 012.363-1.537c.85-.331 1.816-.554 3.237-.62 1.421-.063 1.873-.08 5.496-.08zm0 6.666a6.667 6.667 0 100 13.334 6.667 6.667 0 000-13.334zM24.667 9a1.666 1.666 0 10-3.333 0 1.666 1.666 0 003.333 0zM16 12a4 4 0 110 8 4 4 0 010-8z" fill="#6854FC"/></g><defs><clipPath id="clip0_302_1539"><path fill="#fff" d="M0 0h32v32H0z"/></clipPath></defs></svg>