<svg width="36" height="36" fill="none" xmlns="http://www.w3.org/2000/svg"><path d="M20.995 9.33V1.338A1.342 1.342 0 0020.31.162 1.32 1.32 0 0019.682 0H1.312C.59 0 0 .599 0 1.338v33.328C0 35.405.59 36 1.312 36h18.37a1.32 1.32 0 001.313-1.334v-9.802h-1.859V29.5H1.86V2.169h17.277V9.33h1.859zm-10.5 21.336c1.046 0 1.89.861 1.89 1.92a1.901 1.901 0 01-1.89 1.915c-1.041 0-1.884-.857-1.884-1.915 0-1.059.843-1.92 1.884-1.92z" fill="#6854FC"/><path d="M14.35 15.832v5.95c0 .52-.412.944-.924.944H7.569a.939.939 0 01-.93-.944v-5.95a.94.94 0 01.93-.945h5.857c.512 0 .925.424.925.944zM36 6.296v7.817a1.23 1.23 0 01-1.218 1.242h-4.006V11.86c0-1.394-1.119-2.531-2.491-2.531H25.87V6.296a1.23 1.23 0 011.217-1.238h7.694A1.23 1.23 0 0136 6.296z" fill="#6854FC"/><path d="M29.915 11.861v8.089h-2.93c-.986 0-1.786.817-1.786 1.819v2.22h-7.221a1.64 1.64 0 01-1.63-1.656V11.862c0-.914.726-1.658 1.63-1.658h10.306c.9 0 1.63.744 1.63 1.657z" fill="#6854FC"/><path d="M33.766 21.769v5.95c0 .52-.413.944-.925.944h-5.856a.935.935 0 01-.925-.944v-5.95c0-.52.413-.945.925-.945h5.856c.512 0 .925.424.925.945z" fill="#6854FC"/></svg>