<svg width="30" height="30" fill="none" xmlns="http://www.w3.org/2000/svg"><g fill="#0F642F"><path d="M15 6.29c-4.718 0-8.555 3.91-8.555 8.714 0 4.806 3.838 8.714 8.555 8.714s8.555-3.908 8.555-8.714c0-4.805-3.838-8.714-8.555-8.714zm4.604 9.31l-5.189-.001V7.992h1.17l-.001 6.417h4.02v1.19z"/><path d="M29.989 14.49l-.01-.168a18.481 18.481 0 00-.023-.368l-.018-.204a18.839 18.839 0 00-.084-.73l-4.65-1.395h.001l2.962-3.919a15.285 15.285 0 00-2.275-3.204l-4.584 1.661.133-4.944A14.686 14.686 0 0017.741 0L15 4.074 12.265.008c-.176.033-.352.068-.526.107-.113.026-.227.048-.34.076-.347.087-.692.183-1.031.295l-.04.014c-.327.11-.65.231-.97.363-.11.046-.217.097-.326.145-.159.07-.316.145-.472.221l.133 4.933-4.331-1.57-.243-.087a14.48 14.48 0 00-.338.375c-.083.095-.167.187-.247.285-.207.25-.405.507-.595.772-.03.042-.062.083-.091.125-.197.28-.385.567-.564.861-.065.107-.125.219-.188.328-.088.152-.172.307-.256.462l2.956 3.911-4.65 1.397-.02.148-.027.226a14.029 14.029 0 00-.055.563c-.01.123-.017.243-.023.363-.003.057-.008.115-.01.172a12.535 12.535 0 000 1.023c.002.055.007.114.01.17.006.12.013.241.023.364l.018.208a19.22 19.22 0 00.064.58l.02.148 4.649 1.396-2.955 3.91c.087.165.176.327.268.487.057.1.112.2.171.298.19.313.389.619.599.915l.012.016c.207.29.424.57.65.843.07.087.147.169.22.254.117.135.238.267.36.398l4.573-1.657-.133 4.933c.168.082.337.163.508.237.094.041.186.086.28.125.667.276 1.354.502 2.056.678.108.027.216.048.324.071.178.04.356.076.536.109l2.216-3.294.52-.772 1.167 1.735L17.736 30c.175-.032.35-.067.524-.106.113-.025.227-.047.34-.075.35-.087.695-.185 1.037-.297l.003-.001c.34-.112.674-.24 1.005-.376.104-.043.206-.091.309-.137.164-.072.325-.15.486-.228l-.133-4.933 4.574 1.657c.12-.129.238-.258.352-.391.076-.087.155-.172.229-.262.222-.27.437-.548.642-.835l.018-.024c.21-.294.407-.6.597-.913.061-.1.117-.204.176-.305.092-.159.18-.319.266-.481l-2.957-3.911 4.65-1.396.02-.148.027-.223.036-.356c.007-.07.014-.138.019-.207.01-.124.017-.245.023-.366.003-.055.008-.113.01-.168a11.95 11.95 0 000-1.027zM15 24.91c-5.362 0-9.724-4.443-9.724-9.905S9.638 5.1 15 5.1s9.724 4.444 9.724 9.905c0 5.462-4.362 9.905-9.724 9.905z"/></g></svg>