<svg width="27" height="30" fill="none" xmlns="http://www.w3.org/2000/svg"><g fill="#2555BB"><path d="M6.75 8.796a2.073 2.073 0 002.077-2.07c0-1.142-.93-2.068-2.077-2.068a2.073 2.073 0 00-2.077 2.069c0 1.142.93 2.069 2.077 2.069zm12.98 2.586a4.688 4.688 0 00-3.302 1.365 4.651 4.651 0 00-1.37 3.29v7.498c0 1.03-.41 2.016-1.141 2.743a3.902 3.902 0 01-5.508 0 3.871 3.871 0 01-1.14-2.743v-2.5l2.596-.861v-1.035h-6.23v1.035l2.595.862v2.5c0 1.302.52 2.552 1.445 3.473a4.943 4.943 0 006.976 0 4.904 4.904 0 001.445-3.474v-7.499c0-.96.383-1.88 1.064-2.56a3.642 3.642 0 015.14 0 3.613 3.613 0 011.065 2.56v3.667a2.922 2.922 0 011.039 0v-3.667a4.65 4.65 0 00-1.37-3.29 4.688 4.688 0 00-3.304-1.364z"/><path d="M24.404 19.703v3.574H27v-.518a3.09 3.09 0 00-.737-2 3.118 3.118 0 00-1.86-1.056zm-3.635 7.194c0 .823.328 1.612.913 2.194a3.122 3.122 0 004.405 0A3.097 3.097 0 0027 26.897V24.31h-6.231v2.586zm0-4.137v.517h2.596v-3.574a3.118 3.118 0 00-1.859 1.055 3.097 3.097 0 00-.737 2.001zM9.865 17.07h-6.23v1.035h6.23V17.07zm-6.23-2.068v1.034H6.23V9.783a3.118 3.118 0 01-1.942-1.157A3.094 3.094 0 014.64 4.44a3.122 3.122 0 014.218 0 3.098 3.098 0 01.352 4.186 3.118 3.118 0 01-1.94 1.157v6.253h2.596v-1.609a3.175 3.175 0 011.137-2.482 6.722 6.722 0 002.246-3.4 6.698 6.698 0 00-.136-4.069 6.726 6.726 0 00-2.467-3.244 6.768 6.768 0 00-7.79 0A6.726 6.726 0 00.388 4.476a6.698 6.698 0 00-.136 4.068 6.722 6.722 0 002.245 3.4 3.187 3.187 0 011.138 2.483v.575z"/></g></svg>