<svg width="90" height="90" viewBox="0 0 90 90" fill="none" xmlns="http://www.w3.org/2000/svg">
<g id="Frame" clip-path="url(#clip0_196_2)">
<path id="Vector" d="M45 82.5C24.2888 82.5 7.5 65.7113 7.5 45C7.5 24.2888 24.2888 7.5 45 7.5C65.7113 7.5 82.5 24.2888 82.5 45C82.5 65.7113 65.7113 82.5 45 82.5ZM39.8325 31.5562C39.6068 31.4057 39.3445 31.3191 39.0735 31.3058C38.8025 31.2925 38.533 31.353 38.2937 31.4807C38.0543 31.6085 37.8541 31.7988 37.7143 32.0313C37.5746 32.2638 37.5005 32.5299 37.5 32.8012V57.1987C37.5005 57.4701 37.5746 57.7362 37.7143 57.9687C37.8541 58.2012 38.0543 58.3915 38.2937 58.5193C38.533 58.647 38.8025 58.7075 39.0735 58.6942C39.3445 58.6809 39.6068 58.5943 39.8325 58.4437L58.1287 46.2487C58.3345 46.1118 58.5032 45.9262 58.6199 45.7083C58.7366 45.4905 58.7977 45.2471 58.7977 45C58.7977 44.7529 58.7366 44.5095 58.6199 44.2917C58.5032 44.0738 58.3345 43.8882 58.1287 43.7513L39.8288 31.5562H39.8325Z" fill="white"/>
</g>
<defs>
<clipPath id="clip0_196_2">
<rect width="90" height="90" fill="white"/>
</clipPath>
</defs>
</svg>
