<svg width="38" height="35" viewBox="0 0 38 35" fill="none" xmlns="http://www.w3.org/2000/svg">
<path d="M36.8125 0H32.0625C31.7476 0 31.4455 0.125111 31.2228 0.347811C31.0001 0.57051 30.875 0.872555 30.875 1.1875V2.375H22.5625V1.1875C22.5625 0.872555 22.4374 0.57051 22.2147 0.347811C21.992 0.125111 21.6899 0 21.375 0H16.625C16.3101 0 16.008 0.125111 15.7853 0.347811C15.5626 0.57051 15.4375 0.872555 15.4375 1.1875V2.375H7.125V1.1875C7.125 0.872555 6.99989 0.57051 6.77719 0.347811C6.55449 0.125111 6.25244 0 5.9375 0H1.1875C0.872555 0 0.57051 0.125111 0.347811 0.347811C0.125111 0.57051 0 0.872555 0 1.1875L0 5.9375C0 6.25244 0.125111 6.55449 0.347811 6.77719C0.57051 6.99989 0.872555 7.125 1.1875 7.125H5.9375C6.25244 7.125 6.55449 6.99989 6.77719 6.77719C6.99989 6.55449 7.125 6.25244 7.125 5.9375V4.75H15.4375V5.9375C15.4375 6.25244 15.5626 6.55449 15.7853 6.77719C16.008 6.99989 16.3101 7.125 16.625 7.125H21.375C21.6899 7.125 21.992 6.99989 22.2147 6.77719C22.4374 6.55449 22.5625 6.25244 22.5625 5.9375V5.10625C25.9112 5.9375 31.6112 8.91813 32.0625 19H30.875C30.5601 19 30.258 19.1251 30.0353 19.3478C29.8126 19.5705 29.6875 19.8726 29.6875 20.1875V24.9375C29.6875 25.2524 29.8126 25.5545 30.0353 25.7772C30.258 25.9999 30.5601 26.125 30.875 26.125H35.625C35.9399 26.125 36.242 25.9999 36.4647 25.7772C36.6874 25.5545 36.8125 25.2524 36.8125 24.9375V20.1875C36.8125 19.8726 36.6874 19.5705 36.4647 19.3478C36.242 19.1251 35.9399 19 35.625 19H34.4375C34.1406 11.0675 30.875 6.91125 27.5025 4.75H30.875V5.9375C30.875 6.25244 31.0001 6.55449 31.2228 6.77719C31.4455 6.99989 31.7476 7.125 32.0625 7.125H36.8125C37.1274 7.125 37.4295 6.99989 37.6522 6.77719C37.8749 6.55449 38 6.25244 38 5.9375V1.1875C38 0.872555 37.8749 0.57051 37.6522 0.347811C37.4295 0.125111 37.1274 0 36.8125 0ZM4.75 4.75H2.375V2.375H4.75V4.75ZM20.1875 4.75H17.8125V2.375H20.1875V4.75ZM32.0625 21.375H34.4375V23.75H32.0625V21.375ZM35.625 4.75H33.25V2.375H35.625V4.75Z" fill="#6854FC"/>
<path d="M11.7443 8.96566C11.6458 8.76805 11.4942 8.60181 11.3065 8.48561C11.1187 8.36942 10.9023 8.30786 10.6815 8.30786C10.4607 8.30786 10.2443 8.36942 10.0566 8.48561C9.86882 8.60181 9.71719 8.76805 9.6187 8.96566L2.4937 23.2157C2.38383 23.4383 2.34651 23.6898 2.38698 23.9347C2.42745 24.1797 2.54368 24.4058 2.71933 24.5813L4.33433 26.1963C4.10704 26.2812 3.91122 26.4337 3.77322 26.6333C3.63522 26.8328 3.56167 27.0699 3.56245 27.3125V29.6875C3.56245 30.0025 3.68757 30.3045 3.91026 30.5272C4.13296 30.7499 4.43501 30.875 4.74995 30.875H5.93745V34.4375H8.31245V30.875H13.0625V34.4375H15.4375V30.875H16.625C16.9399 30.875 17.2419 30.7499 17.4646 30.5272C17.6873 30.3045 17.8125 30.0025 17.8125 29.6875V27.3125C17.8099 27.0705 17.7335 26.8351 17.5934 26.6377C17.4534 26.4403 17.2563 26.2904 17.0287 26.2082L18.6437 24.5932C18.8194 24.4177 18.9356 24.1916 18.9761 23.9466C19.0165 23.7017 18.9792 23.4502 18.8693 23.2275L11.7443 8.96566ZM13.7631 26.125H7.61183L4.99933 23.5125L9.49995 14.535V21.375H11.875V14.535L16.3637 23.5244L13.7631 26.125Z" fill="#6854FC"/>
</svg>
