<svg width="37" height="36" viewBox="0 0 37 36" fill="none" xmlns="http://www.w3.org/2000/svg">
<g id="Group">
<g id="Group_2">
<path id="Vector" d="M27.9502 2.78781L26.6015 4.13653C26.3922 4.35691 26.0017 4.37834 25.7601 4.13653C25.5272 3.90385 25.5272 3.52781 25.7601 3.29513L27.1088 1.94642C27.3415 1.71366 27.7175 1.71366 27.9561 1.94642C28.1889 2.17916 28.1889 2.55513 27.9502 2.78781Z" fill="#6854FC"/>
<path id="Vector_2" d="M29.896 6.92335C29.884 7.24563 29.6215 7.4963 29.2992 7.4963H29.2753L27.3716 7.41864C27.0434 7.4008 26.7868 7.12623 26.7987 6.79208C26.8107 6.47577 27.0732 6.2251 27.3955 6.2251H27.4194L29.3231 6.30275C29.6573 6.3147 29.9079 6.59517 29.896 6.92335Z" fill="#6854FC"/>
<path id="Vector_3" d="M23.5934 0.573766L23.671 2.47751C23.6889 2.8057 23.4323 3.08616 23.104 3.09811H23.0742C22.7579 3.09811 22.4954 2.84751 22.4834 2.52523L22.3998 0.621554C22.3879 0.2933 22.6446 0.0128342 22.9728 0.000884331C23.3069 -0.0170375 23.5815 0.239609 23.5934 0.573766Z" fill="#6854FC"/>
</g>
<path id="Vector_4" d="M19.7907 15.9361L13.9611 10.1071L14.7515 5.24039L24.6593 15.1482L19.7907 15.9361ZM26.8629 14.7913L26.1122 14.9128L14.9873 3.78852L15.1094 3.03689C15.1874 2.55663 15.7764 2.36652 16.1204 2.71056L27.1896 13.7802C27.5337 14.1244 27.3434 14.7136 26.8629 14.7913ZM24.4367 5.4652C25.5912 6.6197 25.717 8.41935 24.816 9.71838L20.1788 5.08114C21.4784 4.18131 23.2804 4.30953 24.4367 5.4652ZM10.4049 21.3409C9.89553 21.8497 9.06564 21.8508 8.55628 21.3409C8.04634 20.831 8.04634 20.0017 8.55628 19.4917L9.48525 18.5628C9.54502 18.6225 11.4526 20.5296 11.3344 20.4114L10.4049 21.3409ZM13.3818 20.7709C11.978 19.3674 10.6993 18.0889 9.12567 16.5154C8.8063 16.1961 8.8063 15.6756 9.12567 15.3557L13.3241 11.1579L18.7393 16.5731C13.0292 22.2824 20.1834 15.1292 14.5409 20.7709C14.2309 21.0804 13.6924 21.0816 13.3818 20.7709ZM23.0683 23.83C22.6964 23.458 24.6214 25.3867 18.121 18.8768C17.6555 19.3422 16.3247 20.6731 16.265 20.7328L21.2182 25.68C21.7255 26.1933 22.555 26.1933 23.0683 25.68C23.5815 25.1727 23.5815 24.3373 23.0683 23.83Z" fill="#6854FC"/>
<path id="Vector_5" d="M0 31.1211V32.266C0 33.8618 1.2952 35.157 2.89108 35.157H34.1089C35.7048 35.157 37 33.8618 37 32.266V31.1211C35.9658 31.1211 42.3827 31.1211 0 31.1211Z" fill="#6854FC"/>
<g id="Group_3">
<path id="Vector_6" d="M33.8105 8.26013H26.5776C26.506 9.0061 26.2494 9.74617 25.7958 10.3966L25.6764 10.5756L26.3449 11.244H32.5811V26.9452H23.3491C22.6195 27.3518 21.6939 27.3663 20.9381 26.9452H4.41942V11.244H11.5449L12.7623 10.0266L13.0487 8.26013H3.19003C2.22326 8.26013 1.43555 9.04194 1.43555 10.0087V29.929H35.565V10.0087C35.565 9.04194 34.7772 8.26013 33.8105 8.26013Z" fill="#6854FC"/>
</g>
</g>
</svg>
