<svg width="129" height="18" viewBox="0 0 129 18" fill="none" xmlns="http://www.w3.org/2000/svg">
<path d="M4.38379 17L5.57129 13.3516H11.3447L12.5322 17H16.1572L10.6416 1H6.28223L0.758789 17H4.38379ZM6.43066 10.7109L8.39941 4.65625H8.52441L10.4932 10.7109H6.43066ZM22.8838 17.2344C26.0791 17.2344 28.0869 15.3594 28.2432 12.6016H25.1025C24.9072 13.8828 24.0635 14.6016 22.9229 14.6016C21.3682 14.6016 20.3604 13.2969 20.3604 11C20.3604 8.73437 21.376 7.4375 22.9229 7.4375C24.1416 7.4375 24.9229 8.24219 25.1025 9.4375H28.2432C28.1025 6.66406 26.001 4.84375 22.8682 4.84375C19.2275 4.84375 16.9775 7.36719 16.9775 11.0469C16.9775 14.6953 19.1885 17.2344 22.8838 17.2344ZM35.8428 17.2344C38.8115 17.2344 40.8115 15.7891 41.2803 13.5625L38.2021 13.3594C37.8662 14.2734 37.0068 14.75 35.8975 14.75C34.2334 14.75 33.1787 13.6484 33.1787 11.8594V11.8516H41.3506V10.9375C41.3506 6.85938 38.8818 4.84375 35.71 4.84375C32.1787 4.84375 29.8896 7.35156 29.8896 11.0547C29.8896 14.8594 32.1475 17.2344 35.8428 17.2344ZM33.1787 9.78906C33.249 8.42187 34.2881 7.32812 35.7646 7.32812C37.21 7.32812 38.21 8.35937 38.2178 9.78906H33.1787Z" fill="#FFE600"/>
<path d="M57.3564 5.60156H60.5986C60.5518 2.75 58.208 0.781249 54.6455 0.781249C51.1377 0.781249 48.5674 2.71875 48.583 5.625C48.5752 7.98437 50.2393 9.33594 52.9424 9.98437L54.6846 10.4219C56.4268 10.8437 57.3955 11.3437 57.4033 12.4219C57.3955 13.5937 56.2861 14.3906 54.5674 14.3906C52.8096 14.3906 51.5439 13.5781 51.4346 11.9766H48.1611C48.2471 15.4375 50.7236 17.2266 54.6064 17.2266C58.5127 17.2266 60.8096 15.3594 60.8174 12.4297C60.8096 9.76562 58.8018 8.35156 56.0205 7.72656L54.583 7.38281C53.1924 7.0625 52.0283 6.54687 52.0518 5.39844C52.0518 4.36719 52.9658 3.60937 54.6221 3.60937C56.2393 3.60937 57.2314 4.34375 57.3564 5.60156ZM69.4131 5H67.1553V2.125H63.8271V5H62.1865V7.5H63.8271V13.75C63.8115 16.1016 65.4131 17.2656 67.8271 17.1641C68.6865 17.1328 69.2959 16.9609 69.6318 16.8516L69.1084 14.375C68.9443 14.4062 68.5928 14.4844 68.2803 14.4844C67.6162 14.4844 67.1553 14.2344 67.1553 13.3125V7.5H69.4131V5ZM79.2764 11.8906C79.2842 13.5 78.1826 14.3437 76.9873 14.3437C75.7295 14.3437 74.917 13.4609 74.9092 12.0469V5H71.5811V12.6406C71.5889 15.4453 73.2295 17.1563 75.6436 17.1563C77.4482 17.1563 78.7451 16.2266 79.2842 14.8203H79.4092V17H82.6045V5H79.2764V11.8906ZM89.6885 17.1953C91.626 17.1953 92.6338 16.0781 93.0947 15.0781H93.2354V17H96.5166V1H93.1963V7.01562H93.0947C92.6494 6.03906 91.6885 4.84375 89.6807 4.84375C87.0479 4.84375 84.8213 6.89062 84.8213 11.0156C84.8213 15.0312 86.9541 17.1953 89.6885 17.1953ZM90.7432 14.5469C89.1104 14.5469 88.2197 13.0937 88.2197 11C88.2197 8.92188 89.0947 7.49219 90.7432 7.49219C92.3604 7.49219 93.2666 8.85938 93.2666 11C93.2666 13.1406 92.3447 14.5469 90.7432 14.5469ZM99.2529 17H102.581V5H99.2529V17ZM100.925 3.45312C101.917 3.45312 102.729 2.69531 102.729 1.76562C102.729 0.84375 101.917 0.0859367 100.925 0.0859367C99.9404 0.0859367 99.1279 0.84375 99.1279 1.76562C99.1279 2.69531 99.9404 3.45312 100.925 3.45312ZM110.669 17.2344C114.31 17.2344 116.575 14.7422 116.575 11.0469C116.575 7.32812 114.31 4.84375 110.669 4.84375C107.028 4.84375 104.763 7.32812 104.763 11.0469C104.763 14.7422 107.028 17.2344 110.669 17.2344ZM110.685 14.6562C109.005 14.6562 108.146 13.1172 108.146 11.0234C108.146 8.92969 109.005 7.38281 110.685 7.38281C112.333 7.38281 113.192 8.92969 113.192 11.0234C113.192 13.1172 112.333 14.6562 110.685 14.6562ZM128.724 8.42187C128.427 6.21094 126.646 4.84375 123.614 4.84375C120.544 4.84375 118.521 6.26562 118.528 8.57812C118.521 10.375 119.653 11.5391 121.997 12.0078L124.075 12.4219C125.122 12.6328 125.599 13.0156 125.614 13.6172C125.599 14.3281 124.825 14.8359 123.661 14.8359C122.474 14.8359 121.685 14.3281 121.481 13.3516L118.208 13.5234C118.521 15.8203 120.474 17.2344 123.653 17.2344C126.763 17.2344 128.989 15.6484 128.997 13.2812C128.989 11.5469 127.856 10.5078 125.528 10.0312L123.356 9.59375C122.239 9.35156 121.825 8.96875 121.833 8.39062C121.825 7.67187 122.638 7.20312 123.669 7.20312C124.825 7.20312 125.513 7.83594 125.677 8.60937L128.724 8.42187Z" fill="white"/>
</svg>
