<svg width="32" height="32" viewBox="0 0 32 32" fill="none" xmlns="http://www.w3.org/2000/svg">
<g id="Frame" clip-path="url(#clip0_302_1539)">
<path id="Vector" d="M16.0001 2.66669C19.6227 2.66669 20.0747 2.68002 21.4961 2.74669C22.9161 2.81335 23.8827 3.03602 24.7334 3.36669C25.6134 3.70535 26.3547 4.16402 27.0961 4.90402C27.7741 5.57055 28.2987 6.37681 28.6334 7.26669C28.9627 8.11602 29.1868 9.08402 29.2534 10.504C29.3161 11.9254 29.3334 12.3774 29.3334 16C29.3334 19.6227 29.3201 20.0747 29.2534 21.496C29.1868 22.916 28.9627 23.8827 28.6334 24.7334C28.2997 25.6237 27.7749 26.4302 27.0961 27.096C26.4294 27.7738 25.6232 28.2984 24.7334 28.6334C23.8841 28.9627 22.9161 29.1867 21.4961 29.2534C20.0747 29.316 19.6227 29.3334 16.0001 29.3334C12.3774 29.3334 11.9254 29.32 10.5041 29.2534C9.08408 29.1867 8.11741 28.9627 7.26675 28.6334C6.37652 28.2993 5.57012 27.7746 4.90408 27.096C4.22596 26.4296 3.70132 25.6233 3.36675 24.7334C3.03608 23.884 2.81341 22.916 2.74675 21.496C2.68408 20.0747 2.66675 19.6227 2.66675 16C2.66675 12.3774 2.68008 11.9254 2.74675 10.504C2.81341 9.08269 3.03608 8.11735 3.36675 7.26669C3.7004 6.37626 4.22515 5.56978 4.90408 4.90402C5.57031 4.22566 6.37665 3.70099 7.26675 3.36669C8.11741 3.03602 9.08275 2.81335 10.5041 2.74669C11.9254 2.68402 12.3774 2.66669 16.0001 2.66669ZM16.0001 9.33335C14.232 9.33335 12.5363 10.0357 11.286 11.286C10.0358 12.5362 9.33342 14.2319 9.33342 16C9.33342 17.7681 10.0358 19.4638 11.286 20.7141C12.5363 21.9643 14.232 22.6667 16.0001 22.6667C17.7682 22.6667 19.4639 21.9643 20.7141 20.7141C21.9644 19.4638 22.6667 17.7681 22.6667 16C22.6667 14.2319 21.9644 12.5362 20.7141 11.286C19.4639 10.0357 17.7682 9.33335 16.0001 9.33335ZM24.6667 9.00002C24.6667 8.55799 24.4912 8.13407 24.1786 7.82151C23.866 7.50895 23.4421 7.33335 23.0001 7.33335C22.5581 7.33335 22.1341 7.50895 21.8216 7.82151C21.509 8.13407 21.3334 8.55799 21.3334 9.00002C21.3334 9.44205 21.509 9.86597 21.8216 10.1785C22.1341 10.4911 22.5581 10.6667 23.0001 10.6667C23.4421 10.6667 23.866 10.4911 24.1786 10.1785C24.4912 9.86597 24.6667 9.44205 24.6667 9.00002ZM16.0001 12C17.0609 12 18.0784 12.4214 18.8285 13.1716C19.5787 13.9217 20.0001 14.9392 20.0001 16C20.0001 17.0609 19.5787 18.0783 18.8285 18.8284C18.0784 19.5786 17.0609 20 16.0001 20C14.9392 20 13.9218 19.5786 13.1717 18.8284C12.4215 18.0783 12.0001 17.0609 12.0001 16C12.0001 14.9392 12.4215 13.9217 13.1717 13.1716C13.9218 12.4214 14.9392 12 16.0001 12Z" fill="#6854FC"/>
</g>
<defs>
<clipPath id="clip0_302_1539">
<rect width="32" height="32" fill="white"/>
</clipPath>
</defs>
</svg>
