<svg width="32" height="32" viewBox="0 0 32 32" fill="none" xmlns="http://www.w3.org/2000/svg">
<g id="Frame" clip-path="url(#clip0_302_1547)">
<path id="Vector" d="M9.25326 6.66666C9.2529 7.3739 8.97161 8.05204 8.47126 8.55189C7.97092 9.05173 7.2925 9.33235 6.58526 9.33199C5.87801 9.33164 5.19987 9.05035 4.70003 8.55C4.20018 8.04965 3.91957 7.37124 3.91992 6.66399C3.92028 5.95675 4.20157 5.27861 4.70191 4.77876C5.20226 4.27892 5.88068 3.9983 6.58792 3.99866C7.29517 3.99901 7.9733 4.2803 8.47315 4.78065C8.973 5.281 9.25361 5.95941 9.25326 6.66666ZM9.33326 11.3067H3.99992V28H9.33326V11.3067ZM17.7599 11.3067H12.4533V28H17.7066V19.24C17.7066 14.36 24.0666 13.9067 24.0666 19.24V28H29.3333V17.4267C29.3333 9.19999 19.9199 9.50666 17.7066 13.5467L17.7599 11.3067Z" fill="#6854FC"/>
</g>
<defs>
<clipPath id="clip0_302_1547">
<rect width="32" height="32" fill="white"/>
</clipPath>
</defs>
</svg>
