<svg width="18" height="18" viewBox="0 0 18 18" fill="none" xmlns="http://www.w3.org/2000/svg">
<g id="Frame" clip-path="url(#clip0_249_612)">
<path id="Vector" d="M13.2428 11.7428L9 15.9855L4.75725 11.7428C3.91817 10.9036 3.34675 9.83455 3.11527 8.67067C2.88378 7.50679 3.00262 6.30041 3.45676 5.20407C3.91089 4.10773 4.67993 3.17068 5.66661 2.5114C6.6533 1.85213 7.81333 1.50024 9 1.50024C10.1867 1.50024 11.3467 1.85213 12.3334 2.5114C13.3201 3.17068 14.0891 4.10773 14.5433 5.20407C14.9974 6.30041 15.1162 7.50679 14.8847 8.67067C14.6533 9.83455 14.0818 10.9036 13.2428 11.7428ZM3.75 16.5H14.25V18H3.75V16.5Z" fill="#6854FC"/>
</g>
<defs>
<clipPath id="clip0_249_612">
<rect width="18" height="18" fill="white"/>
</clipPath>
</defs>
</svg>
