<svg width="119" height="18" viewBox="0 0 119 18" fill="none" xmlns="http://www.w3.org/2000/svg">
<path d="M10.2266 13.7773H4.57617L3.50195 17H0.0751953L5.89746 1.35938H8.88379L14.7383 17H11.3115L10.2266 13.7773ZM5.44629 11.167H9.35645L7.39062 5.3125L5.44629 11.167ZM20.8291 14.7119C21.402 14.7119 21.8675 14.5544 22.2256 14.2393C22.5837 13.9242 22.7699 13.5052 22.7842 12.9824H25.6953C25.6882 13.7702 25.4733 14.4935 25.0508 15.1523C24.6283 15.804 24.0482 16.3125 23.3105 16.6777C22.5801 17.0358 21.7708 17.2148 20.8828 17.2148C19.2214 17.2148 17.9108 16.6885 16.9512 15.6357C15.9915 14.5758 15.5117 13.1149 15.5117 11.2529V11.0488C15.5117 9.25846 15.988 7.82975 16.9404 6.7627C17.8929 5.69564 19.1999 5.16211 20.8613 5.16211C22.3151 5.16211 23.4788 5.57747 24.3525 6.4082C25.2334 7.23177 25.681 8.33105 25.6953 9.70605H22.7842C22.7699 9.10449 22.5837 8.61751 22.2256 8.24512C21.8675 7.86556 21.3949 7.67578 20.8076 7.67578C20.0843 7.67578 19.5365 7.94076 19.1641 8.4707C18.7988 8.99349 18.6162 9.8457 18.6162 11.0273V11.3496C18.6162 12.5456 18.7988 13.4049 19.1641 13.9277C19.5293 14.4505 20.0843 14.7119 20.8291 14.7119ZM32.8174 17.2148C31.113 17.2148 29.7236 16.6921 28.6494 15.6465C27.5824 14.6009 27.0488 13.208 27.0488 11.4678V11.167C27.0488 9.99967 27.2744 8.95768 27.7256 8.04102C28.1768 7.11719 28.8141 6.4082 29.6377 5.91406C30.4684 5.41276 31.4137 5.16211 32.4736 5.16211C34.0635 5.16211 35.3132 5.66341 36.2227 6.66602C37.1393 7.66862 37.5977 9.09017 37.5977 10.9307V12.1982H30.1963C30.2965 12.9574 30.5973 13.5661 31.0986 14.0244C31.6071 14.4827 32.248 14.7119 33.0215 14.7119C34.2174 14.7119 35.152 14.2786 35.8252 13.4121L37.3506 15.1201C36.8851 15.779 36.2549 16.2946 35.46 16.667C34.665 17.0322 33.7842 17.2148 32.8174 17.2148ZM32.4629 7.67578C31.847 7.67578 31.3457 7.88346 30.959 8.29883C30.5794 8.71419 30.3359 9.30859 30.2285 10.082H34.5469V9.83496C34.5326 9.14746 34.3464 8.61751 33.9883 8.24512C33.6302 7.86556 33.1217 7.67578 32.4629 7.67578Z" fill="#FFE600"/>
<path d="M53.1631 12.8965C53.1631 12.2878 52.9482 11.8223 52.5186 11.5C52.0889 11.1706 51.3154 10.8268 50.1982 10.4688C49.0811 10.1035 48.1966 9.74544 47.5449 9.39453C45.7689 8.4349 44.8809 7.14225 44.8809 5.5166C44.8809 4.67155 45.1172 3.9196 45.5898 3.26074C46.0697 2.59473 46.7536 2.07552 47.6416 1.70312C48.5368 1.33073 49.5394 1.14453 50.6494 1.14453C51.7666 1.14453 52.762 1.34863 53.6357 1.75684C54.5094 2.15788 55.1862 2.72721 55.666 3.46484C56.153 4.20247 56.3965 5.04036 56.3965 5.97852H53.1738C53.1738 5.26237 52.9482 4.70736 52.4971 4.31348C52.0459 3.91243 51.4121 3.71191 50.5957 3.71191C49.8079 3.71191 49.1956 3.88021 48.7588 4.2168C48.3219 4.54622 48.1035 4.98307 48.1035 5.52734C48.1035 6.03581 48.3577 6.46191 48.8662 6.80566C49.3818 7.14941 50.1374 7.47168 51.1328 7.77246C52.9661 8.32389 54.3018 9.00781 55.1396 9.82422C55.9775 10.6406 56.3965 11.6576 56.3965 12.875C56.3965 14.2285 55.8844 15.292 54.8604 16.0654C53.8363 16.8317 52.4577 17.2148 50.7246 17.2148C49.5215 17.2148 48.4258 16.9964 47.4375 16.5596C46.4492 16.1156 45.6937 15.5104 45.1709 14.7441C44.6553 13.9779 44.3975 13.0898 44.3975 12.0801H47.6309C47.6309 13.806 48.6621 14.6689 50.7246 14.6689C51.4909 14.6689 52.0889 14.515 52.5186 14.207C52.9482 13.8919 53.1631 13.4551 53.1631 12.8965ZM62.1006 2.51953V5.37695H64.0879V7.6543H62.1006V13.4551C62.1006 13.8848 62.1829 14.1927 62.3477 14.3789C62.5124 14.5651 62.8275 14.6582 63.293 14.6582C63.6367 14.6582 63.9411 14.6331 64.2061 14.583V16.9355C63.5973 17.1217 62.9707 17.2148 62.3262 17.2148C60.1491 17.2148 59.0391 16.1156 58.9961 13.917V7.6543H57.2988V5.37695H58.9961V2.51953H62.1006ZM72.7783 15.8184C72.012 16.7493 70.9521 17.2148 69.5986 17.2148C68.3525 17.2148 67.4001 16.8568 66.7412 16.1406C66.0895 15.4245 65.7565 14.3753 65.7422 12.9932V5.37695H68.8467V12.8857C68.8467 14.096 69.3981 14.7012 70.501 14.7012C71.5537 14.7012 72.277 14.3359 72.6709 13.6055V5.37695H75.7861V17H72.8643L72.7783 15.8184ZM77.6445 11.1025C77.6445 9.29069 78.0492 7.84766 78.8584 6.77344C79.6748 5.69922 80.7884 5.16211 82.1992 5.16211C83.3307 5.16211 84.2653 5.58464 85.0029 6.42969V0.5H88.1182V17H85.3145L85.1641 15.7646C84.3906 16.7314 83.3952 17.2148 82.1777 17.2148C80.8099 17.2148 79.7106 16.6777 78.8799 15.6035C78.0563 14.5221 77.6445 13.0218 77.6445 11.1025ZM80.749 11.3281C80.749 12.4167 80.9388 13.251 81.3184 13.8311C81.6979 14.4111 82.2493 14.7012 82.9727 14.7012C83.9323 14.7012 84.609 14.2965 85.0029 13.4873V8.90039C84.6162 8.09115 83.9466 7.68652 82.9941 7.68652C81.4974 7.68652 80.749 8.90039 80.749 11.3281ZM93.8008 17H90.6855V5.37695H93.8008V17ZM90.5029 2.36914C90.5029 1.90365 90.6569 1.52051 90.9648 1.21973C91.2799 0.918945 91.7061 0.768555 92.2432 0.768555C92.7731 0.768555 93.1956 0.918945 93.5107 1.21973C93.8258 1.52051 93.9834 1.90365 93.9834 2.36914C93.9834 2.8418 93.8223 3.22852 93.5 3.5293C93.1849 3.83008 92.766 3.98047 92.2432 3.98047C91.7204 3.98047 91.2979 3.83008 90.9756 3.5293C90.6605 3.22852 90.5029 2.8418 90.5029 2.36914ZM95.8848 11.0811C95.8848 9.92806 96.1068 8.90039 96.5508 7.99805C96.9948 7.0957 97.6322 6.39746 98.4629 5.90332C99.3008 5.40918 100.271 5.16211 101.374 5.16211C102.942 5.16211 104.221 5.64193 105.209 6.60156C106.204 7.5612 106.759 8.86458 106.874 10.5117L106.896 11.3066C106.896 13.0898 106.398 14.5221 105.402 15.6035C104.407 16.6777 103.071 17.2148 101.396 17.2148C99.7197 17.2148 98.3805 16.6777 97.3779 15.6035C96.3825 14.5293 95.8848 13.0684 95.8848 11.2207V11.0811ZM98.9893 11.3066C98.9893 12.4095 99.1969 13.2546 99.6123 13.8418C100.028 14.4219 100.622 14.7119 101.396 14.7119C102.147 14.7119 102.735 14.4255 103.157 13.8525C103.58 13.2725 103.791 12.3486 103.791 11.0811C103.791 9.99967 103.58 9.16178 103.157 8.56738C102.735 7.97298 102.14 7.67578 101.374 7.67578C100.615 7.67578 100.028 7.97298 99.6123 8.56738C99.1969 9.15462 98.9893 10.0677 98.9893 11.3066ZM115.103 13.7881C115.103 13.4085 114.913 13.1113 114.533 12.8965C114.161 12.6745 113.559 12.4775 112.729 12.3057C109.964 11.7256 108.582 10.5511 108.582 8.78223C108.582 7.75098 109.008 6.8916 109.86 6.2041C110.72 5.50944 111.84 5.16211 113.223 5.16211C114.698 5.16211 115.876 5.50944 116.757 6.2041C117.645 6.89876 118.089 7.80111 118.089 8.91113H114.984C114.984 8.46712 114.841 8.10189 114.555 7.81543C114.268 7.52181 113.821 7.375 113.212 7.375C112.689 7.375 112.285 7.49316 111.998 7.72949C111.712 7.96582 111.568 8.2666 111.568 8.63184C111.568 8.97559 111.729 9.25488 112.052 9.46973C112.381 9.67741 112.933 9.86003 113.706 10.0176C114.479 10.168 115.131 10.3398 115.661 10.5332C117.301 11.1348 118.121 12.1768 118.121 13.6592C118.121 14.7191 117.666 15.5785 116.757 16.2373C115.847 16.889 114.673 17.2148 113.233 17.2148C112.259 17.2148 111.393 17.043 110.634 16.6992C109.882 16.3483 109.291 15.8721 108.861 15.2705C108.432 14.6618 108.217 14.0065 108.217 13.3047H111.16C111.189 13.8561 111.393 14.2786 111.772 14.5723C112.152 14.8659 112.66 15.0127 113.298 15.0127C113.892 15.0127 114.34 14.9017 114.641 14.6797C114.949 14.4505 115.103 14.1533 115.103 13.7881Z" fill="black"/>
</svg>
