<svg width="18" height="18" viewBox="0 0 18 18" fill="none" xmlns="http://www.w3.org/2000/svg">
<g id="Frame" clip-path="url(#clip0_249_607)">
<path id="Vector" d="M1.68225 5.14049L8.6175 0.982493C8.73406 0.912554 8.86744 0.87561 9.00338 0.87561C9.13931 0.87561 9.27269 0.912554 9.38925 0.982493L16.3177 5.14124C16.3733 5.17455 16.4194 5.2217 16.4513 5.27809C16.4832 5.33448 16.5 5.39819 16.5 5.46299V15C16.5 15.1989 16.421 15.3897 16.2803 15.5303C16.1397 15.671 15.9489 15.75 15.75 15.75H2.25C2.05109 15.75 1.86032 15.671 1.71967 15.5303C1.57902 15.3897 1.5 15.1989 1.5 15V5.46224C1.49999 5.39744 1.51677 5.33373 1.54871 5.27734C1.58065 5.22095 1.62666 5.1738 1.68225 5.14049ZM13.7595 6.18299L9.04575 10.2622L4.23525 6.17849L3.26475 7.32149L9.05475 12.2377L14.7405 7.31774L13.7595 6.18299Z" fill="#6854FC"/>
</g>
<defs>
<clipPath id="clip0_249_607">
<rect width="18" height="18" fill="white"/>
</clipPath>
</defs>
</svg>
