<svg width="36" height="36" viewBox="0 0 36 36" fill="none" xmlns="http://www.w3.org/2000/svg">
<path d="M20.9949 9.3301V1.33787C20.9949 0.922516 20.8094 0.550887 20.5172 0.306048C20.4527 0.253583 20.3838 0.205489 20.3111 0.161768C20.1256 0.0612096 19.9105 0 19.6824 0H1.31245C0.589526 0 0 0.59898 0 1.33787V34.6665C0 35.405 0.589526 36 1.31245 36H19.6824C20.4096 36 20.9953 35.4054 20.9953 34.6665V24.8642H19.1364V29.4987H1.85894V2.16857H19.1359V9.3301H20.9949ZM10.4953 30.666C11.5409 30.666 12.3843 31.5273 12.3843 32.5858C12.3843 33.6439 11.5409 34.5008 10.4953 34.5008C9.45393 34.5008 8.61052 33.6439 8.61052 32.5858C8.61052 31.5273 9.45393 30.666 10.4953 30.666Z" fill="#6854FC"/>
<path d="M14.3508 15.8315V21.7819C14.3508 22.3018 13.9377 22.7259 13.4257 22.7259H7.56912C7.05705 22.7259 6.63965 22.3018 6.63965 21.7819V15.8315C6.63965 15.3112 7.05705 14.8871 7.56912 14.8871H13.4257C13.9377 14.8871 14.3508 15.3112 14.3508 15.8315Z" fill="#6854FC"/>
<path d="M36.0001 6.29578V14.1131C36.0001 14.7995 35.4532 15.3548 34.7823 15.3548H30.7762V11.8615C30.7762 10.4668 29.6573 9.33003 28.2847 9.33003H25.8706V6.29578C25.8706 5.61373 26.4171 5.05847 27.0884 5.05847H34.7823C35.4536 5.05847 36.0001 5.61373 36.0001 6.29578Z" fill="#6854FC"/>
<path d="M29.9149 11.8615V19.9499H26.9845C25.999 19.9499 25.1987 20.7675 25.1987 21.7687V23.9897H17.978C17.0744 23.9897 16.3472 23.2509 16.3472 22.3327V11.8615C16.3472 10.9477 17.0744 10.2045 17.978 10.2045H28.284C29.1833 10.2045 29.9149 10.9477 29.9149 11.8615Z" fill="#6854FC"/>
<path d="M33.7664 21.7687V27.7192C33.7664 28.2394 33.3533 28.6635 32.8413 28.6635H26.9847C26.4727 28.6635 26.0596 28.2394 26.0596 27.7192V21.7687C26.0596 21.2484 26.4727 20.8243 26.9847 20.8243H32.8413C33.3533 20.8243 33.7664 21.2484 33.7664 21.7687Z" fill="#6854FC"/>
</svg>
