<svg width="18" height="18" viewBox="0 0 18 18" fill="none" xmlns="http://www.w3.org/2000/svg">
<g id="Group">
<path id="Vector" d="M17.4329 12.1154C18.1896 10.1074 18.1896 7.89259 17.4329 5.8846C17.4221 5.84385 17.4075 5.80422 17.3893 5.76621C16.7356 4.0711 15.5846 2.6133 14.0874 1.58422C12.5902 0.555137 10.8167 0.00289327 8.99995 0H8.9958C7.17775 0.00385223 5.40341 0.557761 3.90606 1.58891C2.4087 2.62005 1.25842 4.08016 0.606436 5.77729C0.593208 5.80645 0.582102 5.83653 0.573206 5.86729C-0.191069 7.88583 -0.191069 10.1141 0.573206 12.1327C0.582102 12.1634 0.593208 12.1935 0.606436 12.2227C1.25569 13.9214 2.40512 15.3831 3.90281 16.4147C5.4005 17.4463 7.17596 17.9991 8.99454 18.0002C10.8131 18.0012 12.5892 17.4504 14.0881 16.4206C15.587 15.3908 16.7381 13.9303 17.3893 12.2324C17.4075 12.1948 17.4221 12.1556 17.4329 12.1154ZM6.67034 11.2292C6.35464 9.75982 6.35464 8.24013 6.67034 6.77075H11.3296C11.6453 8.24013 11.6453 9.75982 11.3296 11.2292H6.67034ZM10.9502 12.6138C10.5015 13.9205 9.8428 15.1454 8.99995 16.2401C8.15831 15.145 7.50056 13.9202 7.0525 12.6138H10.9502ZM1.38459 8.99997C1.38522 8.24425 1.49886 7.49286 1.72174 6.77075H5.26012C4.98227 8.24391 4.98227 9.75603 5.26012 11.2292H1.72174C1.49886 10.5071 1.38522 9.7557 1.38459 8.99997ZM7.0525 5.38614C7.50162 4.07947 8.16055 2.85468 9.00341 1.75984C9.84504 2.85481 10.5026 4.07963 10.9502 5.38614H7.0525ZM12.7453 6.77075H16.2837C16.7305 8.22332 16.7305 9.77663 16.2837 11.2292H12.7419C13.0206 9.75612 13.0206 8.24383 12.7419 6.77075H12.7453ZM15.7042 5.38614H12.4158C12.003 4.0185 11.3791 2.72374 10.5666 1.54869C11.6493 1.77831 12.6691 2.24039 13.5556 2.90298C14.4421 3.56556 15.174 4.41282 15.7008 5.38614H15.7042ZM7.43326 1.54869C6.62056 2.72369 5.99642 4.01845 5.58342 5.38614H2.29843C2.82524 4.41271 3.55728 3.56538 4.44388 2.90279C5.33049 2.2402 6.35048 1.77817 7.43326 1.54869ZM2.29843 12.6138H5.58342C5.99642 13.9815 6.62056 15.2763 7.43326 16.4513C6.35048 16.2218 5.33049 15.7598 4.44388 15.0972C3.55728 14.4346 2.82524 13.5872 2.29843 12.6138ZM10.5666 16.4513C11.3791 15.2762 12.003 13.9814 12.4158 12.6138H15.7008C15.174 13.5871 14.4421 14.4344 13.5556 15.097C12.6691 15.7596 11.6493 16.2216 10.5666 16.4513Z" fill="#6854FC"/>
</g>
</svg>
