<svg width="18" height="18" viewBox="0 0 18 18" fill="none" xmlns="http://www.w3.org/2000/svg">
<g id="Frame" clip-path="url(#clip0_249_604)">
<path id="Vector" d="M4.5 1.5H13.5C13.6989 1.5 13.8897 1.57902 14.0303 1.71967C14.171 1.86032 14.25 2.05109 14.25 2.25V15.75C14.25 15.9489 14.171 16.1397 14.0303 16.2803C13.8897 16.421 13.6989 16.5 13.5 16.5H4.5C4.30109 16.5 4.11032 16.421 3.96967 16.2803C3.82902 16.1397 3.75 15.9489 3.75 15.75V2.25C3.75 2.05109 3.82902 1.86032 3.96967 1.71967C4.11032 1.57902 4.30109 1.5 4.5 1.5ZM9 12.75C8.80109 12.75 8.61032 12.829 8.46967 12.9697C8.32902 13.1103 8.25 13.3011 8.25 13.5C8.25 13.6989 8.32902 13.8897 8.46967 14.0303C8.61032 14.171 8.80109 14.25 9 14.25C9.19891 14.25 9.38968 14.171 9.53033 14.0303C9.67098 13.8897 9.75 13.6989 9.75 13.5C9.75 13.3011 9.67098 13.1103 9.53033 12.9697C9.38968 12.829 9.19891 12.75 9 12.75Z" fill="#6854FC"/>
</g>
<defs>
<clipPath id="clip0_249_604">
<rect width="18" height="18" fill="white"/>
</clipPath>
</defs>
</svg>
