<svg width="31" height="16" viewBox="0 0 31 16" fill="none" xmlns="http://www.w3.org/2000/svg">
<g id="Group">
<path id="Vector" d="M15.7666 0.141602C15.5631 0.141773 15.3254 0.289741 15.2355 0.472219L14.069 2.84057L0.638634 2.78332C0.1669 2.77541 0.16406 3.48595 0.635863 3.48143L13.7261 3.53736L11.8342 7.37895H0.647455C0.175427 7.37236 0.175427 8.08373 0.647455 8.07707H11.4899L9.59945 11.9166H0.637225C0.165196 11.91 0.165196 12.6214 0.637225 12.6147H9.25517L7.99735 15.1692C7.90749 15.3517 7.99946 15.4996 8.20256 15.4999H23.1962C23.3997 15.4997 23.6374 15.3517 23.7273 15.1692L30.9654 0.472219C31.0552 0.289806 30.9632 0.141852 30.7601 0.141602H15.7666Z" fill="#B89500"/>
</g>
</svg>
