<svg width="28" height="30" viewBox="0 0 28 30" fill="none" xmlns="http://www.w3.org/2000/svg">
<path id="Vector" d="M18.2444 19.161L9.92975 21.6189C10.3433 22.4181 10.982 23.0664 11.7489 23.4935V27.9328H10.3326C9.7725 27.9328 9.32123 28.3962 9.32123 28.9664C9.32123 29.5366 9.77358 30 10.3326 30H18.6785C19.2385 30 19.6898 29.5366 19.6898 28.9664C19.6898 28.3962 19.2374 27.9328 18.6785 27.9328H17.2622V22.3454C17.2622 22.3465 18.3198 21.292 18.2444 19.161ZM15.2384 27.9328H13.7726L13.7597 24.056C14.45 24.0384 15.2384 23.7863 15.2384 23.7863V27.9328ZM2.62533 11.4976L5.81227 9.84099L9.64864 19.5506L6.13322 20.5897C6.13322 20.5897 5.11004 20.9849 4.71477 19.4681L3.01522 20.1528C3.01522 20.1528 2.18268 20.516 1.70232 19.5694L0.0706203 15.3315C-0.134015 14.8009 0.121241 14.201 0.640369 13.9908L2.33669 13.3061C2.33777 13.305 1.66678 11.9962 2.62533 11.4976ZM16.9132 2.32401L20.8734 0.140139C21.7965 -0.368405 22.294 0.670697 22.294 0.670697L27.718 14.7261C28.0282 15.905 27.0308 16.1053 27.0308 16.1053L22.6742 17.2644C21.6317 17.5418 21.273 16.113 21.273 16.113L11.6024 18.9728L7.62383 8.89985L16.6741 4.19307C16.6741 4.19197 15.9256 2.86888 16.9132 2.32401Z" fill="#B85A60"/>
</svg>
