<svg width="30" height="30" viewBox="0 0 30 30" fill="none" xmlns="http://www.w3.org/2000/svg">
<g id="Group">
<path id="Vector" d="M14.9997 6.29028C10.2822 6.29028 6.44482 10.1991 6.44482 15.0044C6.44482 19.8097 10.2826 23.7182 14.9997 23.7182C19.7168 23.7182 23.5546 19.8097 23.5546 15.0044C23.5546 10.1991 19.7168 6.29028 14.9997 6.29028ZM19.6043 15.5995L14.4151 15.5988L14.4154 7.99239H15.5843L15.5839 14.4085L19.6043 14.4089V15.5995Z" fill="#0F642F"/>
<path id="Vector_2" d="M29.9888 14.4908C29.9865 14.4354 29.982 14.3781 29.9797 14.322C29.973 14.2009 29.9655 14.079 29.9561 13.9541C29.9509 13.8869 29.9441 13.8189 29.9381 13.7505C29.9269 13.6317 29.9145 13.5114 29.9006 13.3892C29.8927 13.3174 29.8838 13.2452 29.8748 13.1722C29.868 13.1226 29.8609 13.071 29.8538 13.0206L25.2049 11.6252L25.2052 11.6248H25.2049L28.1674 7.70608C27.5362 6.52499 26.7724 5.4501 25.8919 4.50202L21.3075 6.16326L21.441 1.21852C20.2714 0.651277 19.0298 0.242176 17.7416 0L15 4.07382L12.2655 0.00840333C12.0892 0.0412537 11.9134 0.0756322 11.7386 0.115358C11.6258 0.140569 11.5117 0.162724 11.3996 0.190608C11.0516 0.2777 10.707 0.373959 10.3676 0.485879C10.3545 0.490463 10.3414 0.495811 10.3282 0.500395C10.0005 0.609259 9.67763 0.731111 9.35888 0.863276C9.24862 0.908732 9.141 0.959918 9.03225 1.00805C8.87325 1.07871 8.71613 1.1532 8.55975 1.22921L8.69325 6.16249H8.69287V6.16288L4.36163 4.59294L4.11938 4.50508C4.00463 4.62846 3.89138 4.7526 3.78075 4.88019C3.69825 4.97492 3.6135 5.06736 3.53363 5.16476C3.32738 5.41458 3.129 5.67241 2.9385 5.93713C2.9085 5.97876 2.87737 6.01963 2.84775 6.06203C2.65087 6.34126 2.46337 6.62889 2.28412 6.92302C2.21887 7.03036 2.15887 7.14151 2.09587 7.25076C2.00812 7.40279 1.92375 7.55787 1.8405 7.71334L4.79587 11.6244L4.7955 11.6248L0.145875 13.0206C0.139125 13.0699 0.131625 13.1203 0.125625 13.1692C0.11625 13.2452 0.10725 13.3204 0.0986248 13.3945C0.0847498 13.5141 0.0731249 13.6321 0.0626249 13.7482C0.0558749 13.8185 0.0494999 13.8892 0.0438749 13.9576C0.0341249 14.0806 0.0273751 14.2009 0.0206251 14.3208C0.0176251 14.3781 0.0134999 14.4362 0.0112499 14.4927C0.0041249 14.6665 0 14.8377 0 15.0046C0 15.1715 0.0041249 15.3419 0.0112499 15.5157C0.0134999 15.5714 0.0180001 15.6295 0.0206251 15.686C0.0270001 15.806 0.0341249 15.9271 0.0438749 16.0504C0.0494999 16.1188 0.0558751 16.1883 0.0622501 16.2582C0.0731251 16.3744 0.08475 16.492 0.09825 16.6123C0.106875 16.6876 0.115875 16.7628 0.125625 16.8389C0.131625 16.887 0.139125 16.9374 0.145875 16.9863L4.79475 18.3821L1.83975 22.2924C1.92713 22.457 2.01562 22.6194 2.10825 22.779C2.16525 22.8784 2.22 22.9796 2.27925 23.0774C2.46975 23.3898 2.66775 23.6958 2.87775 23.9922C2.88188 23.9979 2.886 24.0021 2.89012 24.0079C3.09675 24.2986 3.31425 24.5782 3.53925 24.8509C3.6105 24.938 3.68662 25.0197 3.75937 25.1045C3.87675 25.2401 3.9975 25.3719 4.11938 25.5029L8.6925 23.8455H8.69325L8.55975 28.7792C8.7285 28.8606 8.89687 28.9415 9.06825 29.0164C9.16162 29.0573 9.2535 29.102 9.34762 29.1413C10.0147 29.4171 10.7017 29.6432 11.4045 29.8186C11.5117 29.8457 11.6201 29.8667 11.7281 29.8904C11.9055 29.9305 12.0844 29.9656 12.2636 29.9989L14.4795 26.7054L15 25.9327L16.1674 27.6684L17.7356 30C17.9115 29.9675 18.0866 29.9332 18.2603 29.8938C18.3731 29.8686 18.4871 29.8468 18.6 29.8189C18.9491 29.7315 19.2952 29.6344 19.6365 29.5221C19.6376 29.5214 19.6388 29.5214 19.6395 29.5206C19.9796 29.4087 20.3141 29.2819 20.6453 29.1447C20.7491 29.1023 20.8507 29.0535 20.9539 29.0076C21.1178 28.9358 21.2794 28.8579 21.4403 28.7796L21.3075 23.8467L25.881 25.5041C26.0002 25.3754 26.1191 25.2459 26.2335 25.1129C26.3092 25.0255 26.3876 24.9407 26.4615 24.8505C26.6839 24.5808 26.8988 24.3031 27.1035 24.0155C27.1095 24.0079 27.1159 24.001 27.1215 23.9922C27.3315 23.6977 27.5291 23.3917 27.7192 23.0789C27.7804 22.9788 27.8363 22.8753 27.8951 22.7737C27.987 22.6155 28.0748 22.4551 28.161 22.2928L25.2045 18.3817L29.8534 16.9859C29.8601 16.937 29.8673 16.8866 29.8736 16.8377C29.8834 16.7632 29.8924 16.6887 29.9006 16.615C29.9141 16.4943 29.9261 16.3763 29.9374 16.2594C29.9438 16.1895 29.9505 16.1207 29.9558 16.0524C29.9651 15.9282 29.9726 15.8071 29.9794 15.6864C29.9824 15.6307 29.9869 15.5734 29.9888 15.5176C29.9963 15.3434 30 15.1719 30 15.0042C30 14.8365 29.9959 14.665 29.9888 14.4908ZM15 24.9086C9.63825 24.9086 5.27625 20.4658 5.27625 15.0042C5.27625 9.54264 9.63825 5.09906 15 5.09906C20.3617 5.09906 24.7241 9.54264 24.7241 15.0042C24.7241 20.4661 20.3617 24.9086 15 24.9086Z" fill="#0F642F"/>
</g>
</svg>
