<svg width="120" height="20" viewBox="0 0 120 20" fill="none" xmlns="http://www.w3.org/2000/svg">
<g id="Group 19">
<path id="Star 1" d="M9.94735 0L13.3386 5.3077L19.4078 6.90983L15.4344 11.7923L15.7943 18.0902L9.94735 15.8L4.10045 18.0902L4.46027 11.7923L0.486858 6.90983L6.55615 5.3077L9.94735 0Z" fill="#FACC07"/>
<path id="Star 2" d="M34.8419 0L38.2331 5.3077L44.3024 6.90983L40.329 11.7923L40.6888 18.0902L34.8419 15.8L28.995 18.0902L29.3548 11.7923L25.3814 6.90983L31.4507 5.3077L34.8419 0Z" fill="#FACC07"/>
<path id="Star 3" d="M59.7364 0L63.1276 5.3077L69.1969 6.90983L65.2235 11.7923L65.5833 18.0902L59.7364 15.8L53.8895 18.0902L54.2493 11.7923L50.2759 6.90983L56.3452 5.3077L59.7364 0Z" fill="#FACC07"/>
<path id="Star 4" d="M84.6309 0L88.0222 5.3077L94.0914 6.90983L90.118 11.7923L90.4779 18.0902L84.6309 15.8L78.784 18.0902L79.1439 11.7923L75.1705 6.90983L81.2397 5.3077L84.6309 0Z" fill="#FACC07"/>
<path id="Star 5" d="M109.525 0L112.917 5.3077L118.986 6.90983L115.013 11.7923L115.372 18.0902L109.525 15.8L103.679 18.0902L104.038 11.7923L100.065 6.90983L106.134 5.3077L109.525 0Z" fill="#FACC07"/>
</g>
</svg>
