<svg width="20" height="20" viewBox="0 0 20 20" fill="none" xmlns="http://www.w3.org/2000/svg">
<g id="Frame">
<path id="Vector" d="M9.707 5.29279C9.51947 5.10532 9.26516 5 9 5C8.73484 5 8.48053 5.10532 8.293 5.29279L4.293 9.29279C4.10553 9.48031 4.00021 9.73462 4.00021 9.99979C4.00021 10.265 4.10553 10.5193 4.293 10.7068L8.293 14.7068C8.4816 14.8889 8.7342 14.9897 8.9964 14.9875C9.2586 14.9852 9.50941 14.88 9.69482 14.6946C9.88023 14.5092 9.9854 14.2584 9.98767 13.9962C9.98995 13.734 9.88916 13.4814 9.707 13.2928L7.414 10.9998H15C15.2652 10.9998 15.5196 10.8944 15.7071 10.7069C15.8946 10.5194 16 10.265 16 9.99979C16 9.73457 15.8946 9.48022 15.7071 9.29268C15.5196 9.10514 15.2652 8.99979 15 8.99979H7.414L9.707 6.70679C9.89447 6.51926 9.99979 6.26495 9.99979 5.99979C9.99979 5.73462 9.89447 5.48031 9.707 5.29279Z" fill="black"/>
</g>
</svg>
