<svg width="20" height="20" viewBox="0 0 20 20" fill="none" xmlns="http://www.w3.org/2000/svg">
<g id="Frame">
<path id="Vector" d="M10.293 5.29279C10.4805 5.10532 10.7348 5 11 5C11.2652 5 11.5195 5.10532 11.707 5.29279L15.707 9.29279C15.8945 9.48031 15.9998 9.73462 15.9998 9.99979C15.9998 10.265 15.8945 10.5193 15.707 10.7068L11.707 14.7068C11.5184 14.8889 11.2658 14.9897 11.0036 14.9875C10.7414 14.9852 10.4906 14.88 10.3052 14.6946C10.1198 14.5092 10.0146 14.2584 10.0123 13.9962C10.01 13.734 10.1108 13.4814 10.293 13.2928L12.586 10.9998H5C4.73478 10.9998 4.48043 10.8944 4.29289 10.7069C4.10536 10.5194 4 10.265 4 9.99979C4 9.73457 4.10536 9.48022 4.29289 9.29268C4.48043 9.10514 4.73478 8.99979 5 8.99979H12.586L10.293 6.70679C10.1055 6.51926 10.0002 6.26495 10.0002 5.99979C10.0002 5.73462 10.1055 5.48031 10.293 5.29279Z" fill="black"/>
</g>
</svg>
