<svg width="32" height="32" viewBox="0 0 32 32" fill="none" xmlns="http://www.w3.org/2000/svg">
<g id="Frame" clip-path="url(#clip0_302_1551)">
<path id="Vector" d="M29.5494 7.54136C28.5315 7.99162 27.452 8.28732 26.3467 8.41869C27.5117 7.72194 28.3837 6.62538 28.8001 5.33336C27.7067 5.98402 26.5081 6.44002 25.2587 6.68669C24.4195 5.7888 23.3072 5.19331 22.0947 4.9928C20.8821 4.7923 19.6373 4.99801 18.5538 5.57796C17.4702 6.15791 16.6086 7.0796 16.1029 8.19975C15.5972 9.31989 15.4757 10.5757 15.7574 11.772C13.5402 11.6609 11.3712 11.0847 9.39112 10.0809C7.41106 9.0771 5.66424 7.66809 4.26407 5.94536C3.76846 6.79662 3.50801 7.76433 3.5094 8.74936C3.5094 10.6827 4.4934 12.3907 5.9894 13.3907C5.10408 13.3628 4.23825 13.1237 3.46407 12.6934V12.7627C3.46434 14.0503 3.9099 15.2982 4.7252 16.2948C5.54051 17.2914 6.67538 17.9753 7.9374 18.2307C7.11556 18.4534 6.25381 18.4862 5.4174 18.3267C5.77323 19.435 6.46675 20.4043 7.40086 21.0988C8.33497 21.7934 9.46291 22.1784 10.6267 22.2C9.47004 23.1085 8.14564 23.78 6.72924 24.1763C5.31285 24.5725 3.83224 24.6857 2.37207 24.5094C4.921 26.1486 7.8882 27.0189 10.9187 27.016C21.1761 27.016 26.7854 18.5187 26.7854 11.1494C26.7854 10.9094 26.7787 10.6667 26.7681 10.4294C27.8599 9.64025 28.8022 8.66272 29.5507 7.54269L29.5494 7.54136Z" fill="#6854FC"/>
</g>
<defs>
<clipPath id="clip0_302_1551">
<rect width="32" height="32" fill="white"/>
</clipPath>
</defs>
</svg>
