<svg width="36" height="36" viewBox="0 0 36 36" fill="none" xmlns="http://www.w3.org/2000/svg">
<path d="M34.8657 24.2306C36.3791 20.2146 36.3791 15.7851 34.8657 11.7691C34.8441 11.6876 34.8149 11.6084 34.7784 11.5324C33.4711 8.14217 31.1691 5.22657 28.1746 3.16842C25.1802 1.11027 21.6334 0.00578651 17.9998 0H17.9915C14.3554 0.00770442 10.8068 1.11552 7.81207 3.1778C4.81738 5.24008 2.51683 8.16029 1.21287 11.5545C1.18641 11.6128 1.1642 11.673 1.14641 11.7345C-0.382135 15.7716 -0.382135 20.2281 1.14641 24.2652C1.1642 24.3267 1.18641 24.3869 1.21287 24.4452C2.51137 27.8426 4.81021 30.7661 7.80558 32.8293C10.801 34.8924 14.3518 35.9981 17.989 36.0002C21.6261 36.0023 25.1783 34.9007 28.176 32.841C31.1738 30.7813 33.476 27.8605 34.7784 24.4646C34.8147 24.3895 34.8439 24.3111 34.8657 24.2306ZM13.3406 22.4583C12.7092 19.5195 12.7092 16.4802 13.3406 13.5414H22.659C23.2904 16.4802 23.2904 19.5195 22.659 22.4583H13.3406ZM21.9002 25.2275C21.0029 27.8409 19.6855 30.2906 17.9998 32.4801C16.3165 30.2899 15.001 27.8404 14.1049 25.2275H21.9002ZM2.76916 17.9999C2.77042 16.4884 2.9977 14.9857 3.44346 13.5414H10.5202C9.9645 16.4877 9.9645 19.512 10.5202 22.4583H3.44346C2.9977 21.0141 2.77042 19.5113 2.76916 17.9999ZM14.1049 10.7722C15.0032 8.15891 16.321 5.70932 18.0067 3.51966C19.69 5.7096 21.005 8.15923 21.9002 10.7722H14.1049ZM25.4905 13.5414H32.5672C33.4608 16.4466 33.4608 19.5532 32.5672 22.4583H25.4836C26.0411 19.5121 26.0411 16.4876 25.4836 13.5414H25.4905ZM31.4083 10.7722H24.8314C24.0059 8.03696 22.7581 5.44745 21.1332 3.09736C23.2984 3.5566 25.3381 4.48076 27.111 5.80592C28.884 7.13108 30.3479 8.82559 31.4014 10.7722H31.4083ZM14.8665 3.09736C13.241 5.44735 11.9928 8.03687 11.1668 10.7722H4.59684C5.65045 8.82538 7.11452 7.13072 8.88772 5.80555C10.6609 4.48037 12.7009 3.55633 14.8665 3.09736ZM4.59684 25.2275H11.1668C11.9928 27.9628 13.241 30.5524 14.8665 32.9024C12.7009 32.4434 10.6609 31.5193 8.88772 30.1942C7.11452 28.869 5.65045 27.1743 4.59684 25.2275ZM21.1332 32.9024C22.7581 30.5523 24.0059 27.9628 24.8314 25.2275H31.4014C30.3479 27.1741 28.884 28.8686 27.111 30.1938C25.3381 31.519 23.2984 32.4431 21.1332 32.9024Z" fill="#6854FC"/>
</svg>
