<svg width="32" height="32" viewBox="0 0 32 32" fill="none" xmlns="http://www.w3.org/2000/svg">
<g id="Frame" clip-path="url(#clip0_302_1555)">
<path id="Vector" d="M28.7241 8.66398C29.3334 11.04 29.3334 16 29.3334 16C29.3334 16 29.3334 20.96 28.7241 23.336C28.3854 24.6493 27.3947 25.6826 26.1401 26.032C23.8614 26.6666 16.0001 26.6666 16.0001 26.6666C16.0001 26.6666 8.14275 26.6666 5.86008 26.032C4.60008 25.6773 3.61075 24.6453 3.27608 23.336C2.66675 20.96 2.66675 16 2.66675 16C2.66675 16 2.66675 11.04 3.27608 8.66398C3.61475 7.35065 4.60541 6.31731 5.86008 5.96798C8.14275 5.33331 16.0001 5.33331 16.0001 5.33331C16.0001 5.33331 23.8614 5.33331 26.1401 5.96798C27.4001 6.32265 28.3894 7.35465 28.7241 8.66398ZM13.3334 20.6666L21.3334 16L13.3334 11.3333V20.6666Z" fill="#6854FC"/>
</g>
<defs>
<clipPath id="clip0_302_1555">
<rect width="32" height="32" fill="white"/>
</clipPath>
</defs>
</svg>
